<svg width="175" height="46" viewBox="0 0 175 46" fill="none" xmlns="http://www.w3.org/2000/svg">
<path fill-rule="evenodd" clip-rule="evenodd" d="M23.4355 8.88525V21.9701L32.9806 12.425L33.6877 13.1321L24.4346 22.3853H37.9355V23.3853H24.8488L34.3948 32.9313L33.6877 33.6384L23.4355 23.3862V37.8853H22.4355V24.3843L13.1816 33.6382L12.4745 32.9311L22.0204 23.3853H8.93555V22.3853H22.4346L13.1816 13.1323L13.8887 12.4252L22.4355 20.972V8.88525H23.4355Z" fill="white"/>
<path fill-rule="evenodd" clip-rule="evenodd" d="M66.4355 8.88525V21.9701L75.9806 12.425L76.6877 13.1321L67.4346 22.3853H80.9355V23.3853H67.8488L77.3948 32.9313L76.6877 33.6384L66.4355 23.3862V37.8853H65.4355V24.3843L56.1816 33.6382L55.4745 32.9311L65.0204 23.3853H51.9355V22.3853H65.4346L56.1816 13.1323L56.8887 12.4252L65.4355 20.972V8.88525H66.4355Z" fill="white"/>
<path fill-rule="evenodd" clip-rule="evenodd" d="M109.436 8.88525V21.9701L118.981 12.425L119.688 13.1321L110.435 22.3853H123.936V23.3853H110.849L120.395 32.9313L119.688 33.6384L109.436 23.3862V37.8853H108.436V24.3843L99.1816 33.6382L98.4745 32.9311L108.02 23.3853H94.9355V22.3853H108.435L99.1816 13.1323L99.8887 12.4252L108.436 20.972V8.88525H109.436Z" fill="white"/>
<path fill-rule="evenodd" clip-rule="evenodd" d="M152.436 8.88525V21.9701L161.981 12.425L162.688 13.1321L153.435 22.3853H166.936V23.3853H153.849L163.395 32.9313L162.688 33.6384L152.436 23.3862V37.8853H151.436V24.3843L142.182 33.6382L141.475 32.9311L151.02 23.3853H137.936V22.3853H151.435L142.182 13.1323L142.889 12.4252L151.436 20.972V8.88525H152.436Z" fill="white"/>
</svg>
