<svg width="213" height="41" viewBox="0 0 213 41" fill="none" xmlns="http://www.w3.org/2000/svg">
<path fill-rule="evenodd" clip-rule="evenodd" d="M31.5214 3.68821C27.5823 0.186921 21.5481 0.524806 18.0425 4.46847L11.1883 12.1791L12.8959 13.6969L19.7501 5.98629C22.4132 2.99039 27.0028 2.72856 30.0035 5.39577L35.5721 10.3502L37.0908 8.64337L31.5218 3.68858L31.5214 3.68821ZM22.9336 8.84297C24.0296 7.61255 25.9209 7.50158 27.1468 8.59346L27.1472 8.59389L32.7162 13.5487L34.2349 11.8418L28.6664 6.88749C26.4946 4.95299 23.1614 5.15524 21.2298 7.32083L21.2276 7.32337L11.4648 18.1562L13.162 19.6856L22.9292 8.84789L22.9292 8.8479L22.9336 8.84297ZM28.6664 6.88749L27.9066 7.74047L28.6659 6.88706L28.6664 6.88749ZM36.591 18.3098L28.8801 11.4559L27.3622 13.1634L35.0731 20.0173C38.069 22.6802 38.331 27.2694 35.664 30.27L35.6637 30.2704L30.7091 35.8388L32.416 37.3574L37.3709 31.7886L37.3713 31.7882C40.8727 27.8493 40.5348 21.8152 36.591 18.3098ZM21.3733 13.4295L32.2114 23.1963L32.2164 23.2007C33.4468 24.2967 33.5578 26.188 32.4659 27.4137L32.4654 27.4142L27.5105 32.983L29.2174 34.5016L34.1719 28.9333C36.1065 26.7616 35.9042 23.4285 33.7386 21.4971L22.9028 11.7324L21.3733 13.4295ZM34.1719 28.9333L33.3189 28.1735L34.1723 28.9329L34.1719 28.9333ZM3.42182 9.53695L8.37678 3.96817L10.0837 5.48681L5.12907 11.0552L5.1287 11.0556C2.46179 14.0562 2.72374 18.6454 5.71961 21.3083L13.4305 28.1622L11.9126 29.8697L4.20173 23.0158C0.257934 19.5104 -0.0799622 13.4763 3.42145 9.53736L3.42182 9.53695ZM13.2823 8.34259L8.3273 13.9114L8.32687 13.9119C7.23495 15.1377 7.34593 17.0289 8.57639 18.1249L8.58132 18.1293L8.58131 18.1293L19.4194 27.8961L17.8899 29.5932L7.05673 19.8308L7.05419 19.8286C4.88869 17.8973 4.6863 14.5645 6.62041 12.3927L6.62084 12.3923L11.5754 6.82395L13.2823 8.34259ZM27.6302 21.6402L17.863 32.4779L17.8586 32.4828C16.7626 33.7132 14.8713 33.8242 13.6455 32.7323L13.645 32.7319L8.076 27.7771L6.5573 29.4839L12.1258 34.4383L12.1263 34.4387C14.2981 36.3728 17.6309 36.1704 19.5623 34.005L19.5647 34.0024L29.3274 23.1696L27.6302 21.6402ZM22.7498 36.843L29.6039 29.1324L27.8963 27.6146L21.0421 35.3252C18.3791 38.321 13.7898 38.5829 10.7891 35.9161L10.7887 35.9157L5.22011 30.9613L3.70142 32.6681L9.2704 37.6229L9.2708 37.6233C13.2099 41.1246 19.2442 40.7867 22.7498 36.843Z" fill="white"/>
<path d="M191.672 18.9868H188.109V18.2064H190.835V11.6804H191.672V18.9868Z" fill="white"/>
<path d="M178.103 14.0325H185.997V14.8581H178.103V14.0325ZM178.103 17.3803H185.964V18.2172H178.103V17.3803ZM177.707 10.7186H186.45V18.8732H185.579V11.5668H178.544V18.9185H177.707V10.7186ZM181.598 8.52441H182.469V17.8214H181.598V8.52441Z" fill="white"/>
<path d="M167.518 12.5736H174.089V13.3653H167.518V12.5736ZM167.518 15.0279H174.089V15.8196H167.518V15.0279ZM167.518 17.5048H174.089V18.2966H167.518V17.5048ZM166.941 10.0628H174.745V18.8734H173.863V10.8771H167.801V18.9299H166.941V10.0628ZM170.255 8.50195L171.239 8.62636C170.99 9.30497 170.696 10.0401 170.448 10.5265L169.69 10.3794C169.893 9.84786 170.142 9.05615 170.255 8.50195Z" fill="white"/>
<path d="M161.757 9.67811C161.508 9.85907 161.157 10.1644 160.976 10.3228C160.196 11.0014 158.567 12.2794 157.73 12.9807C157.052 13.5688 157.04 13.7385 157.776 14.3492C158.805 15.1975 160.807 16.8035 162.006 18.0137L161.203 18.7489C160.965 18.4774 160.694 18.206 160.422 17.9232C159.619 17.1089 157.911 15.6386 156.848 14.7677C155.785 13.8742 155.909 13.3878 156.927 12.5283C157.787 11.8157 159.506 10.4585 160.264 9.68942C160.49 9.46322 160.784 9.13522 160.909 8.93164L161.757 9.67811Z" fill="white"/>
<path d="M152.027 11.2728C151.778 11.4198 151.495 11.5782 151.156 11.7478C150.398 12.1437 148.826 12.8902 147.718 13.614C146.666 14.3039 146.033 15.0504 146.033 15.8987C146.033 16.8374 146.937 17.4255 148.724 17.4255C149.946 17.4255 151.461 17.2672 152.344 17.041L152.332 18.0589C151.484 18.2059 150.172 18.3303 148.758 18.3303C146.632 18.3303 145.094 17.697 145.094 16.0005C145.094 14.779 145.919 13.8176 147.254 12.9354C148.408 12.1663 149.991 11.4085 150.726 10.9901C151.054 10.7978 151.303 10.6507 151.541 10.4585L152.027 11.2728ZM146.304 9.21436C146.824 10.6621 147.525 12.0758 148.046 12.992L147.277 13.4557C146.7 12.5282 146.021 11.0014 145.41 9.5989L146.304 9.21436Z" fill="white"/>
<path d="M133.958 10.1986C134.772 10.3003 135.824 10.3456 136.955 10.3456C138.041 10.3456 139.183 10.2664 140.008 10.1872V11.1147C139.239 11.1712 137.995 11.2504 136.955 11.2504C135.824 11.2504 134.851 11.1939 133.958 11.126V10.1986ZM134.421 14.7566C134.274 15.209 134.184 15.6274 134.184 16.0459C134.184 16.9168 135.055 17.5049 136.876 17.5049C138.436 17.5049 139.884 17.3353 140.744 17.0638L140.755 18.0252C139.941 18.2514 138.504 18.421 136.898 18.421C134.591 18.421 133.268 17.6633 133.268 16.2495C133.268 15.6614 133.392 15.1298 133.494 14.6774L134.421 14.7566ZM140.325 8.94313C140.608 9.3503 141.015 10.0402 141.253 10.5039L140.631 10.7754C140.404 10.3117 140.02 9.62174 139.714 9.20326L140.325 8.94313ZM141.569 8.49072C141.863 8.9092 142.304 9.61043 142.519 10.0289L141.909 10.3117C141.66 9.81401 141.287 9.16933 140.97 8.75086L141.569 8.49072Z" fill="white"/>
<path d="M126.575 10.3002C126.428 11.4764 126.202 12.7997 125.851 14.0099C125.161 16.3285 124.256 17.5273 123.216 17.5273C122.198 17.5273 121.191 16.3737 121.191 14.4962C121.191 12.0419 123.374 9.9043 126.145 9.9043C128.792 9.9043 130.477 11.7705 130.477 14.0664C130.477 16.4303 128.916 18.0137 126.224 18.3643L125.704 17.5273C126.066 17.4934 126.405 17.4482 126.677 17.3916C128.125 17.0636 129.55 15.9779 129.55 14.0212C129.55 12.2116 128.294 10.7186 126.123 10.7186C123.634 10.7186 122.085 12.7658 122.085 14.4284C122.085 15.8534 122.73 16.4868 123.239 16.4868C123.77 16.4868 124.381 15.7177 124.958 13.8063C125.286 12.7318 125.523 11.4538 125.636 10.2775L126.575 10.3002Z" fill="white"/>
<path d="M109.64 11.3067H119.458V12.1437H109.64V11.3067ZM114.085 8.52441H114.979V18.9185H114.085V8.52441ZM113.893 11.7365L114.628 11.9853C113.576 14.3378 111.744 16.5546 109.844 17.7196C109.686 17.4934 109.403 17.1767 109.199 16.9957C111.065 15.9891 112.932 13.8402 113.893 11.7365ZM115.148 11.7478C116.132 13.795 118.044 15.9439 119.865 16.9505C119.65 17.1201 119.356 17.4594 119.209 17.6856C117.365 16.5207 115.51 14.27 114.436 12.0079L115.148 11.7478Z" fill="white"/>
<path d="M103.952 10.3002C103.805 11.4764 103.579 12.7997 103.228 14.0099C102.538 16.3285 101.633 17.5273 100.593 17.5273C99.575 17.5273 98.5684 16.3737 98.5684 14.4962C98.5684 12.0419 100.751 9.9043 103.522 9.9043C106.169 9.9043 107.854 11.7705 107.854 14.0664C107.854 16.4303 106.293 18.0137 103.601 18.3643L103.081 17.5273C103.443 17.4934 103.782 17.4482 104.054 17.3916C105.502 17.0636 106.927 15.9779 106.927 14.0212C106.927 12.2116 105.671 10.7186 103.5 10.7186C101.011 10.7186 99.4619 12.7658 99.4619 14.4284C99.4619 15.8534 100.107 16.4868 100.616 16.4868C101.147 16.4868 101.758 15.7177 102.335 13.8063C102.663 12.7318 102.9 11.4538 103.013 10.2775L103.952 10.3002Z" fill="white"/>
<path d="M89.5188 9.4519C90.9891 9.64418 94.0202 10.2775 95.4453 10.7752L95.0834 11.6461C93.7149 11.1371 90.7516 10.4924 89.1908 10.2889L89.5188 9.4519ZM88.9985 12.4378C90.548 12.7092 93.2964 13.2861 94.6989 13.795L94.3482 14.6659C93.0362 14.1569 90.2652 13.5349 88.6592 13.2861L88.9985 12.4378ZM88.3877 15.729C90.2765 16.0344 93.5678 16.8035 95.1173 17.4256L94.7215 18.2965C93.2285 17.6405 89.8581 16.8827 88.0371 16.5999L88.3877 15.729Z" fill="white"/>
<path d="M80.8774 17.7766C80.9226 17.607 80.9565 17.3694 80.9565 17.1432C80.9565 16.623 80.9565 11.081 80.9565 10.3684C80.9565 9.93866 80.9 9.62198 80.9 9.53149H81.9405C81.9292 9.62198 81.884 9.94997 81.884 10.3798C81.884 11.081 81.884 16.5551 81.884 16.8944C82.9358 16.4194 84.327 15.3902 85.1866 14.1121L85.7295 14.8925C84.7455 16.2158 83.1847 17.3694 81.8727 18.0254C81.6804 18.1159 81.5673 18.2177 81.4768 18.2743L80.8774 17.7766ZM75.6973 17.7314C76.6586 17.0528 77.3259 16.0461 77.6653 14.9491C78.0046 13.9085 78.0046 11.6578 78.0046 10.3911C78.0046 10.0631 77.9819 9.81425 77.9254 9.57673H78.9659C78.9546 9.70115 78.9094 10.0518 78.9094 10.3798C78.9094 11.6352 78.8755 14.0669 78.5701 15.1979C78.2308 16.4081 77.5069 17.5052 76.5568 18.2969L75.6973 17.7314Z" fill="white"/>
<path d="M73.8503 10.9452C73.7598 11.1035 73.6467 11.3636 73.5901 11.5446C73.2847 12.6869 72.5948 14.2138 71.5882 15.4466C70.559 16.702 69.2017 17.7313 67.0867 18.523L66.2611 17.7765C68.3422 17.1658 69.7446 16.1478 70.7852 14.9377C71.6561 13.9084 72.3573 12.4381 72.5835 11.4089H68.3987L68.7606 10.5946C69.213 10.5946 72.0067 10.5946 72.3573 10.5946C72.6627 10.5946 72.9228 10.5606 73.1038 10.4928L73.8503 10.9452ZM70.0613 9.23733C69.8804 9.5314 69.6768 9.91594 69.5637 10.1195C68.8964 11.375 67.7201 12.9923 65.8991 14.1912L65.1074 13.6144C67.0641 12.4494 68.1725 10.7981 68.6702 9.79153C68.7833 9.58795 68.9529 9.18078 69.0208 8.88672L70.0613 9.23733Z" fill="white"/>
<path d="M60.0391 8.45679H63.6018V9.23719H60.876V15.7632H60.0391V8.45679Z" fill="white"/>
<path d="M194.912 33.0322H192.729V32.2409H194.006V25.396H192.729V24.6047H194.912V33.0322Z" fill="white"/>
<path d="M187.42 31.7739H186.361V25.1006H189.984C190.327 25.1006 190.639 25.1514 190.918 25.2531C191.198 25.3548 191.436 25.501 191.633 25.6917C191.83 25.876 191.983 26.1016 192.091 26.3685C192.199 26.6355 192.253 26.9373 192.253 27.2742C192.253 27.6301 192.186 27.9415 192.053 28.2085C191.919 28.4754 191.741 28.6978 191.519 28.8758C191.296 29.0474 191.039 29.1777 190.747 29.2667C190.454 29.3556 190.149 29.4001 189.831 29.4001H187.42V31.7739ZM187.42 28.4373H189.851C190.264 28.4373 190.581 28.3387 190.804 28.1417C191.033 27.9447 191.147 27.6587 191.147 27.2837C191.147 26.8515 191.026 26.5401 190.785 26.3495C190.543 26.1588 190.213 26.0635 189.793 26.0635H187.42V28.4373Z" fill="white"/>
<path d="M179.121 29.1999V25.1006H180.179V29.1713C180.179 29.5145 180.24 29.791 180.36 30.0007C180.488 30.2105 180.653 30.3725 180.856 30.4869C181.066 30.595 181.307 30.6681 181.581 30.7062C181.854 30.738 182.14 30.7539 182.439 30.7539C182.725 30.7539 183.004 30.738 183.278 30.7062C183.551 30.6681 183.792 30.5918 184.002 30.4774C184.218 30.363 184.39 30.2041 184.517 30.0007C184.65 29.791 184.717 29.5145 184.717 29.1713V25.1006H185.775V29.1999C185.775 29.7338 185.683 30.1691 185.499 30.506C185.321 30.8365 185.076 31.0971 184.765 31.2877C184.46 31.472 184.104 31.5991 183.697 31.6691C183.297 31.739 182.877 31.7739 182.439 31.7739C182 31.7739 181.581 31.739 181.18 31.6691C180.78 31.5991 180.427 31.4689 180.122 31.2782C179.817 31.0875 179.572 30.8269 179.388 30.4965C179.21 30.1596 179.121 29.7274 179.121 29.1999Z" fill="white"/>
<path d="M176.314 25.1006V26.0921H171.996V27.9225H176.314V28.8758H171.996V30.7825H176.314V31.7739H170.938V25.1006H176.314Z" fill="white"/>
<path d="M164.339 27.074C164.339 26.6609 164.428 26.3272 164.606 26.073C164.784 25.8124 165.013 25.6122 165.293 25.4724C165.579 25.3262 165.897 25.2277 166.246 25.1769C166.596 25.126 166.942 25.1006 167.285 25.1006C167.648 25.1006 168.003 25.1228 168.353 25.1673C168.709 25.2055 169.027 25.2944 169.306 25.4343C169.586 25.5741 169.812 25.7743 169.983 26.0349C170.155 26.2954 170.241 26.645 170.241 27.0835H169.221C169.221 26.8357 169.16 26.6418 169.039 26.502C168.925 26.3558 168.772 26.2509 168.582 26.1874C168.397 26.1175 168.191 26.0762 167.962 26.0635C167.733 26.0444 167.505 26.0349 167.276 26.0349C167.066 26.0349 166.85 26.0412 166.627 26.0539C166.405 26.0666 166.198 26.1079 166.008 26.1779C165.823 26.2414 165.671 26.3399 165.55 26.4734C165.429 26.6069 165.369 26.7943 165.369 27.0359C165.369 27.2837 165.449 27.4839 165.607 27.6365C165.773 27.7826 166.024 27.8716 166.361 27.9034L168.61 28.1036C169.151 28.1544 169.573 28.3165 169.878 28.5898C170.19 28.8631 170.345 29.2571 170.345 29.7719C170.345 30.2232 170.25 30.5823 170.059 30.8492C169.869 31.1098 169.621 31.31 169.316 31.4498C169.011 31.5896 168.671 31.6786 168.296 31.7167C167.921 31.7549 167.552 31.7739 167.19 31.7739C166.84 31.7739 166.491 31.7517 166.141 31.7072C165.792 31.6563 165.474 31.561 165.188 31.4212C164.908 31.275 164.679 31.0748 164.502 30.8206C164.33 30.56 164.244 30.2168 164.244 29.791H165.264C165.264 30.0261 165.321 30.2136 165.436 30.3535C165.557 30.4933 165.709 30.6013 165.893 30.6776C166.084 30.7475 166.294 30.792 166.523 30.8111C166.751 30.8301 166.977 30.8397 167.199 30.8397C167.428 30.8397 167.667 30.8333 167.914 30.8206C168.169 30.8079 168.401 30.7697 168.61 30.7062C168.82 30.6426 168.992 30.5441 169.125 30.4107C169.265 30.2772 169.335 30.0929 169.335 29.8577C169.335 29.5781 169.249 29.3874 169.078 29.2857C168.906 29.1777 168.671 29.1078 168.372 29.076L166.113 28.8663C165.553 28.8091 165.118 28.6279 164.807 28.3229C164.495 28.0178 164.339 27.6015 164.339 27.074Z" fill="white"/>
<path d="M162.568 25.1006H163.627V31.7739H162.568V25.1006Z" fill="white"/>
<path d="M157.132 31.7739H156.074V25.1006H159.411C159.722 25.1006 160.031 25.1292 160.336 25.1864C160.641 25.2372 160.911 25.3294 161.146 25.4629C161.387 25.5963 161.581 25.7743 161.727 25.9967C161.874 26.2128 161.947 26.4893 161.947 26.8261C161.947 27.0931 161.886 27.3219 161.766 27.5125C161.645 27.7032 161.492 27.8589 161.308 27.9797C161.124 28.1004 160.924 28.1894 160.707 28.2466C160.491 28.2974 160.291 28.3229 160.107 28.3229H161.947V31.7739H160.831V29.2762H157.132V31.7739ZM157.132 26.0635V28.3229H159.401C159.611 28.3229 159.802 28.2974 159.973 28.2466C160.151 28.1894 160.304 28.1099 160.431 28.0083C160.558 27.9002 160.657 27.7731 160.726 27.6269C160.803 27.4744 160.841 27.2996 160.841 27.1026C160.841 26.8865 160.793 26.7117 160.698 26.5783C160.603 26.4448 160.482 26.3399 160.336 26.2637C160.196 26.1874 160.043 26.1365 159.878 26.1111C159.713 26.0793 159.557 26.0635 159.411 26.0635H157.132Z" fill="white"/>
<path d="M149.521 31.7737H147.379V26.9204H149.459C149.829 26.9204 150.161 26.9828 150.457 27.1076C150.753 27.2278 151.005 27.3965 151.213 27.6137C151.426 27.8264 151.587 28.0829 151.698 28.3833C151.814 28.6792 151.872 29.005 151.872 29.3609C151.872 29.7169 151.814 30.0427 151.698 30.3385C151.587 30.6344 151.428 30.8886 151.22 31.1012C151.017 31.3138 150.769 31.4802 150.478 31.6004C150.192 31.716 149.873 31.7737 149.521 31.7737ZM147.857 27.3849V31.3092H149.417C149.722 31.3092 149.995 31.2653 150.235 31.1775C150.476 31.085 150.681 30.9556 150.853 30.7892C151.024 30.6182 151.153 30.4125 151.241 30.1721C151.333 29.9318 151.379 29.6614 151.379 29.3609C151.379 29.0605 151.333 28.7878 151.241 28.5428C151.153 28.2978 151.021 28.0898 150.846 27.9188C150.675 27.7478 150.464 27.6161 150.215 27.5236C149.965 27.4312 149.678 27.3849 149.355 27.3849H147.857Z" fill="white"/>
<path d="M146.864 26.9204V31.7737H145.838L142.67 26.9204H143.19L146.386 31.7737V26.9204H146.864ZM142.191 31.7737V26.9204H142.67V31.7737H142.191Z" fill="white"/>
<path d="M139.554 26.9204L141.69 31.7737H141.163L140.601 30.5257H137.461L136.906 31.7737H136.379L138.528 26.9204H139.041L137.648 30.082H140.428L139.041 26.9204H139.554Z" fill="white"/>
<path d="M133.625 25.1006V31.7739H131.461L128.248 25.1006H129.344L132.576 31.7739V25.1006H133.625ZM127.199 31.7739V25.1006H128.248V31.7739H127.199Z" fill="white"/>
<path d="M117.887 31.7739L116.447 25.1006H117.505L118.955 31.7453H118.964L120.461 25.1006H122.634L124.246 31.7549H124.255L125.533 25.1006H126.61L125.323 31.7739H123.168L121.548 25.1197H121.538L120.041 31.7739H117.887Z" fill="white"/>
<path d="M116.279 28.4373C116.279 29.5241 115.97 30.3535 115.354 30.9255C114.737 31.4911 113.851 31.7739 112.694 31.7739C111.525 31.7739 110.635 31.4911 110.025 30.9255C109.421 30.3535 109.119 29.5241 109.119 28.4373C109.119 27.3377 109.431 26.5083 110.053 25.9491C110.676 25.3834 111.56 25.1006 112.704 25.1006C113.848 25.1006 114.728 25.3771 115.344 25.93C115.967 26.4766 116.279 27.3123 116.279 28.4373ZM115.201 28.4182C115.201 27.6809 114.992 27.1121 114.572 26.7117C114.153 26.305 113.533 26.1016 112.713 26.1016C111.887 26.1016 111.261 26.305 110.835 26.7117C110.409 27.1185 110.196 27.6937 110.196 28.4373C110.196 29.1999 110.409 29.7815 110.835 30.1819C111.267 30.5759 111.893 30.7729 112.713 30.7729C113.565 30.7729 114.191 30.5632 114.591 30.1437C114.998 29.7243 115.201 29.1491 115.201 28.4182Z" fill="white"/>
<path d="M105.293 31.7739H102.348V25.1006H105.208C105.716 25.1006 106.174 25.1864 106.58 25.358C106.987 25.5232 107.334 25.7552 107.62 26.0539C107.912 26.3463 108.134 26.699 108.287 27.1121C108.446 27.5189 108.525 27.9669 108.525 28.4563C108.525 28.9457 108.446 29.3938 108.287 29.8005C108.134 30.2073 107.915 30.5568 107.629 30.8492C107.349 31.1415 107.009 31.3703 106.609 31.5356C106.215 31.6945 105.776 31.7739 105.293 31.7739ZM103.406 26.0921V30.7825H105.15C105.513 30.7825 105.834 30.7284 106.113 30.6204C106.399 30.506 106.638 30.3471 106.828 30.1437C107.019 29.9403 107.165 29.6957 107.267 29.4097C107.369 29.1237 107.419 28.8059 107.419 28.4563C107.419 28.0941 107.365 27.7667 107.257 27.4744C107.156 27.182 107.003 26.9342 106.8 26.7308C106.603 26.5274 106.358 26.3717 106.066 26.2637C105.773 26.1493 105.44 26.0921 105.065 26.0921H103.406Z" fill="white"/>
<path d="M95.4703 25.1006V30.7825H99.5506V31.7739H94.4121V25.1006H95.4703Z" fill="white"/>
<path d="M89.7457 25.1006V30.7825H93.826V31.7739H88.6875V25.1006H89.7457Z" fill="white"/>
<path d="M88.0873 28.4373C88.0873 29.5241 87.779 30.3535 87.1625 30.9255C86.546 31.4911 85.6594 31.7739 84.5027 31.7739C83.3333 31.7739 82.4435 31.4911 81.8334 30.9255C81.2296 30.3535 80.9277 29.5241 80.9277 28.4373C80.9277 27.3377 81.2392 26.5083 81.862 25.9491C82.4848 25.3834 83.3683 25.1006 84.5123 25.1006C85.6563 25.1006 86.5365 25.3771 87.153 25.93C87.7758 26.4766 88.0873 27.3123 88.0873 28.4373ZM87.01 28.4182C87.01 27.6809 86.8003 27.1121 86.3808 26.7117C85.9613 26.305 85.3417 26.1016 84.5218 26.1016C83.6956 26.1016 83.0696 26.305 82.6437 26.7117C82.2179 27.1185 82.005 27.6937 82.005 28.4373C82.005 29.1999 82.2179 29.7815 82.6437 30.1819C83.0759 30.5759 83.7019 30.7729 84.5218 30.7729C85.3734 30.7729 85.9995 30.5632 86.3999 30.1437C86.8066 29.7243 87.01 29.1491 87.01 28.4182Z" fill="white"/>
<path d="M75.527 31.7739H74.4688V25.1006H77.8054C78.1168 25.1006 78.4251 25.1292 78.7301 25.1864C79.0352 25.2372 79.3053 25.3294 79.5405 25.4629C79.782 25.5963 79.9758 25.7743 80.122 25.9967C80.2682 26.2128 80.3413 26.4893 80.3413 26.8261C80.3413 27.0931 80.2809 27.3219 80.1602 27.5125C80.0394 27.7032 79.8869 27.8589 79.7026 27.9797C79.5182 28.1004 79.318 28.1894 79.102 28.2466C78.8859 28.2974 78.6857 28.3229 78.5013 28.3229H80.3413V31.7739H79.2259V29.2762H75.527V31.7739ZM75.527 26.0635V28.3229H77.7959C78.0056 28.3229 78.1963 28.2974 78.3679 28.2466C78.5458 28.1894 78.6984 28.1099 78.8255 28.0083C78.9526 27.9002 79.0511 27.7731 79.121 27.6269C79.1973 27.4744 79.2354 27.2996 79.2354 27.1026C79.2354 26.8865 79.1878 26.7117 79.0924 26.5783C78.9971 26.4448 78.8763 26.3399 78.7301 26.2637C78.5903 26.1874 78.4378 26.1365 78.2725 26.1111C78.1073 26.0793 77.9516 26.0635 77.8054 26.0635H75.527Z" fill="white"/>
<path d="M70.4493 31.7739C69.9091 31.7739 69.4261 31.7008 69.0003 31.5547C68.5745 31.4021 68.2122 31.1829 67.9135 30.8969C67.6211 30.6109 67.3955 30.2613 67.2366 29.8482C67.0841 29.4351 67.0078 28.9679 67.0078 28.4468C67.0078 27.9256 67.0904 27.4585 67.2557 27.0454C67.4209 26.6323 67.6561 26.2827 67.9611 25.9967C68.2662 25.7044 68.6317 25.4819 69.0575 25.3294C69.4897 25.1769 69.9727 25.1006 70.5065 25.1006C70.9069 25.1006 71.2946 25.1451 71.6696 25.2341C72.0509 25.3167 72.3941 25.4533 72.6992 25.644C73.0043 25.8347 73.2585 26.0825 73.4619 26.3876C73.6716 26.6863 73.8051 27.0486 73.8623 27.4744H72.785C72.7405 27.271 72.6515 27.0867 72.5181 26.9215C72.3846 26.7499 72.2162 26.6037 72.0128 26.4829C71.8158 26.3622 71.5838 26.27 71.3169 26.2065C71.0563 26.1365 70.7767 26.1016 70.4779 26.1016C70.0521 26.1016 69.6867 26.1651 69.3816 26.2923C69.0829 26.413 68.8382 26.5814 68.6475 26.7975C68.4569 27.0073 68.3171 27.2551 68.2281 27.5411C68.1391 27.8208 68.0946 28.1195 68.0946 28.4373C68.0946 28.755 68.1359 29.0569 68.2185 29.3429C68.3012 29.6226 68.4378 29.8704 68.6285 30.0865C68.8191 30.2963 69.0638 30.4647 69.3625 30.5918C69.6676 30.7125 70.0394 30.7729 70.4779 30.7729C70.7322 30.7729 70.9832 30.7475 71.2311 30.6967C71.4853 30.6395 71.7205 30.5568 71.9365 30.4488C72.1526 30.3344 72.3369 30.1914 72.4895 30.0198C72.642 29.8418 72.7469 29.6289 72.8041 29.3811H73.8718C73.8019 29.8069 73.6589 30.1723 73.4428 30.4774C73.2331 30.7761 72.9725 31.024 72.6611 31.221C72.3497 31.4117 72.0033 31.5515 71.6219 31.6405C71.2406 31.7294 70.8497 31.7739 70.4493 31.7739Z" fill="white"/>
<path d="M60.4117 27.074C60.4117 26.6609 60.5007 26.3272 60.6787 26.073C60.8566 25.8124 61.0854 25.6122 61.3651 25.4724C61.6511 25.3262 61.9689 25.2277 62.3184 25.1769C62.668 25.126 63.0143 25.1006 63.3575 25.1006C63.7198 25.1006 64.0757 25.1228 64.4253 25.1673C64.7812 25.2055 65.099 25.2944 65.3786 25.4343C65.6583 25.5741 65.8839 25.7743 66.0555 26.0349C66.2271 26.2954 66.3129 26.645 66.3129 27.0835H65.2928C65.2928 26.8357 65.2324 26.6418 65.1117 26.502C64.9973 26.3558 64.8447 26.2509 64.6541 26.1874C64.4698 26.1175 64.2632 26.0762 64.0344 26.0635C63.8056 26.0444 63.5768 26.0349 63.348 26.0349C63.1383 26.0349 62.9222 26.0412 62.6997 26.0539C62.4773 26.0666 62.2707 26.1079 62.0801 26.1779C61.8958 26.2414 61.7432 26.3399 61.6225 26.4734C61.5017 26.6069 61.4413 26.7943 61.4413 27.0359C61.4413 27.2837 61.5208 27.4839 61.6797 27.6365C61.8449 27.7826 62.096 27.8716 62.4328 27.9034L64.6827 28.1036C65.2229 28.1544 65.6455 28.3165 65.9506 28.5898C66.262 28.8631 66.4177 29.2571 66.4177 29.7719C66.4177 30.2232 66.3224 30.5823 66.1317 30.8492C65.9411 31.1098 65.6932 31.31 65.3881 31.4498C65.0831 31.5896 64.7431 31.6786 64.3681 31.7167C63.9931 31.7549 63.6245 31.7739 63.2622 31.7739C62.9127 31.7739 62.5631 31.7517 62.2135 31.7072C61.864 31.6563 61.5462 31.561 61.2602 31.4212C60.9806 31.275 60.7518 31.0748 60.5738 30.8206C60.4022 30.56 60.3164 30.2168 60.3164 29.791H61.3365C61.3365 30.0261 61.3937 30.2136 61.5081 30.3535C61.6288 30.4933 61.7814 30.6013 61.9657 30.6776C62.1563 30.7475 62.3661 30.792 62.5949 30.8111C62.8237 30.8301 63.0493 30.8397 63.2717 30.8397C63.5005 30.8397 63.7389 30.8333 63.9867 30.8206C64.241 30.8079 64.4729 30.7697 64.6827 30.7062C64.8924 30.6426 65.064 30.5441 65.1975 30.4107C65.3373 30.2772 65.4072 30.0929 65.4072 29.8577C65.4072 29.5781 65.3214 29.3874 65.1498 29.2857C64.9782 29.1777 64.7431 29.1078 64.4443 29.076L62.1849 28.8663C61.6257 28.8091 61.1903 28.6279 60.8789 28.3229C60.5675 28.0178 60.4117 27.6015 60.4117 27.074Z" fill="white"/>
<path d="M59.8877 24.5667V25.3389H58.5531V32.3459H59.8877V33.1085H57.6855V24.5667H59.8877Z" fill="white"/>
<circle cx="207.882" cy="28.7401" r="3.9" fill="#FF3733"/>
</svg>
